name sv02_filtered_grf.mot
datacolumns 37
datarows 9
range 0.325000 0.329000
endheader
time	1_ground_force_vx	1_ground_force_vy	1_ground_force_vz	1_ground_force_px	1_ground_force_py	1_ground_force_pz	1_ground_torque_x	1_ground_torque_y	1_ground_torque_z	2_ground_force_vx	2_ground_force_vy	2_ground_force_vz	2_ground_force_px	2_ground_force_py	2_ground_force_pz	2_ground_torque_x	2_ground_torque_y	2_ground_torque_z	3_ground_force_vx	3_ground_force_vy	3_ground_force_vz	3_ground_force_px	3_ground_force_py	3_ground_force_pz	3_ground_torque_x	3_ground_torque_y	3_ground_torque_z	4_ground_force_vx	4_ground_force_vy	4_ground_force_vz	4_ground_force_px	4_ground_force_py	4_ground_force_pz	4_ground_torque_x	4_ground_torque_y	4_ground_torque_z
            0.325000	            0.000014	           -0.000002	            0.000034	            0.450000	            0.000000	            0.900000	           -0.000012	           -0.000030	            0.000010	          129.796036	         1277.134669	         -103.863803	           -0.179903	            0.000000	            0.328558	            0.095316	            0.937870	           -0.076273	           16.821469	            0.664458	           -1.414633	            0.381419	            1.022256	            1.096389	           -0.090373	           -0.003570	            0.007600	          -12.530483	            1.563764	           -0.022843	           -0.492149	            1.019820	            1.099104	            0.003762	           -0.000469	            0.000007
            0.325500	           -0.000007	            0.000002	            0.000040	            0.450000	            0.000000	            0.900000	           -0.000011	           -0.000027	            0.000007	          130.186571	         1280.248536	         -103.736318	           -0.179902	            0.000000	            0.328616	            0.097178	            0.955642	           -0.077434	           16.827456	            0.670949	           -1.418903	            0.381418	            1.022257	            1.096389	           -0.090192	           -0.003596	            0.007605	          -12.549417	            1.563167	           -0.008900	           -0.492155	            1.019823	            1.099102	            0.004189	           -0.000522	            0.000003
            0.326000	           -0.000026	            0.000006	            0.000046	            0.450000	            0.000000	            0.900000	           -0.000010	           -0.000025	            0.000004	          130.563917	         1283.301193	         -103.591704	           -0.179899	            0.000000	            0.328672	            0.099067	            0.973725	           -0.078602	           16.834178	            0.675924	           -1.423332	            0.381418	            1.022258	            1.096389	           -0.090017	           -0.003614	            0.007611	          -12.568753	            1.561639	            0.004462	           -0.492160	            1.019826	            1.099100	            0.004624	           -0.000574	           -0.000002
            0.326500	           -0.000043	            0.000009	            0.000050	            0.450000	            0.000000	            0.900000	           -0.000008	           -0.000022	            0.000002	          130.927542	         1286.291262	         -103.428917	           -0.179896	            0.000000	            0.328727	            0.100992	            0.992188	           -0.079780	           16.841654	            0.679353	           -1.427911	            0.381417	            1.022259	            1.096389	           -0.089850	           -0.003624	            0.007618	          -12.588367	            1.559229	            0.017188	           -0.492166	            1.019828	            1.099099	            0.005060	           -0.000627	           -0.000007
            0.327000	           -0.000059	            0.000012	            0.000054	            0.450000	            0.000000	            0.900000	           -0.000007	           -0.000020	           -0.000000	          131.276901	         1289.217512	         -103.246975	           -0.179891	            0.000000	            0.328781	            0.102956	            1.011090	           -0.080973	           16.849900	            0.681222	           -1.432629	            0.381416	            1.022260	            1.096389	           -0.089693	           -0.003626	            0.007626	          -12.608130	            1.555994	            0.029226	           -0.492171	            1.019831	            1.099097	            0.005491	           -0.000678	           -0.000013
            0.327500	           -0.000072	            0.000015	            0.000057	            0.450000	            0.000000	            0.900000	           -0.000006	           -0.000017	           -0.000002	          131.611465	         1292.078858	         -103.044985	           -0.179886	            0.000000	            0.328834	            0.104966	            1.030487	           -0.082183	           16.858933	            0.681533	           -1.437477	            0.381415	            1.022261	            1.096390	           -0.089547	           -0.003620	            0.007635	          -12.627914	            1.551995	            0.040524	           -0.492176	            1.019834	            1.099095	            0.005913	           -0.000727	           -0.000019
            0.328000	           -0.000084	            0.000017	            0.000059	            0.450000	            0.000000	            0.900000	           -0.000005	           -0.000015	           -0.000004	          131.930737	         1294.874364	         -102.822171	           -0.179880	            0.000000	            0.328886	            0.107024	            1.050422	           -0.083411	           16.868787	            0.680305	           -1.442232	            0.381415	            1.022262	            1.096391	           -0.089412	           -0.003606	            0.007644	          -12.647593	            1.547300	            0.050774	           -0.492183	            1.019837	            1.099093	            0.006320	           -0.000773	           -0.000025
            0.328500	           -0.000094	            0.000019	            0.000060	            0.450000	            0.000000	            0.900000	           -0.000003	           -0.000012	           -0.000006	          132.234268	         1297.603242	         -102.577894	           -0.179873	            0.000000	            0.328937	            0.109135	            1.070929	           -0.084659	           16.879458	            0.677575	           -1.447095	            0.381414	            1.022263	            1.096392	           -0.089291	           -0.003584	            0.007655	          -12.667041	            1.541984	            0.060195	           -0.492189	            1.019840	            1.099090	            0.006707	           -0.000816	           -0.000032
            0.329000	           -0.000102	            0.000020	            0.000060	            0.450000	            0.000000	            0.900000	           -0.000002	           -0.000010	           -0.000008	          132.521679	         1300.264848	         -102.311671	           -0.179865	            0.000000	            0.328988	            0.111299	            1.092032	           -0.085927	           16.890955	            0.673394	           -1.452053	            0.381413	            1.022264	            1.096393	           -0.089182	           -0.003555	            0.007667	          -12.686134	            1.536122	            0.068747	           -0.492196	            1.019843	            1.099087	            0.007069	           -0.000856	           -0.000038
